<?xml version="1.0" standalone="no"?>
<!DOCTYPE svg PUBLIC "-//W3C//DTD SVG 20010904//EN"
 "http://www.w3.org/TR/2001/REC-SVG-20010904/DTD/svg10.dtd">
<svg version="1.0" xmlns="http://www.w3.org/2000/svg"
 width="512.000000pt" height="512.000000pt" viewBox="0 0 512.000000 512.000000"
 preserveAspectRatio="xMidYMid meet">
<metadata>
Created by potrace 1.14, written by Peter Selinger 2001-2017
</metadata>
<g transform="translate(0.000000,512.000000) scale(0.100000,-0.100000)"
fill="#000000" stroke="none">
<path d="M2495 5104 c-41 -23 -72 -61 -79 -97 -3 -16 -6 -420 -6 -897 l0 -867
-152 -75 -153 -76 -6 312 c-5 283 -7 317 -27 376 -47 143 -161 280 -287 347
-103 54 -187 72 -327 69 -76 -2 -148 -10 -188 -21 -36 -9 -73 -19 -83 -21 -71
-13 -243 -96 -343 -163 -89 -61 -100 -70 -197 -161 -307 -289 -543 -761 -617
-1230 -6 -41 -14 -86 -18 -100 -11 -46 -13 -2101 -1 -2150 18 -77 61 -153 124
-216 66 -67 142 -108 224 -124 52 -10 260 -7 331 5 118 20 154 27 230 49 129
38 187 59 280 106 86 43 250 148 305 195 171 147 323 340 419 532 56 113 125
314 142 418 3 17 7 41 10 55 4 28 14 101 19 145 1 17 3 302 4 635 l1 605 229
113 229 112 231 -112 230 -113 2 -605 c1 -333 3 -618 5 -635 1 -16 5 -50 8
-75 9 -91 47 -252 83 -352 197 -560 677 -967 1253 -1063 122 -21 334 -29 394
-15 122 27 255 129 305 233 53 110 51 73 48 1192 -2 572 -7 1056 -11 1075 -4
19 -14 73 -22 120 -37 221 -107 435 -211 644 -183 371 -444 654 -740 800 -90
45 -214 90 -274 100 -19 3 -45 8 -59 11 -62 15 -247 14 -310 0 -206 -48 -388
-218 -444 -415 -24 -84 -24 -96 -25 -397 l-1 -283 -155 77 -155 78 0 880 c0
818 -1 882 -18 914 -9 19 -29 43 -44 54 -36 27 -114 32 -153 11z"/>
</g>
</svg>
